# xmcd
# 
# Track frame offsets:
#     150
#     15138
#     32271
#     48034
#     65701
#     80569
#     101054
#     119855
#     140551
#     155637
#     171076
#     189102
#     204349
#     225490
#     242621
#     259211
#     276384
#     291445
#     305046
#     320137
# 
# Disc length: 4499
# 
# Revision: 0
# Processed by: cddbd v1.5.2PL0 Copyright (c) Steve Scherf et al.
# Submitted via: fre:ac v1.0.31
# 
DISCID=20119114
DTITLE=Beyonce - B'Day
DYEAR=2006
DGENRE=Pop
TTITLE0=Beautiful Liar [Main Version - Album Version]
TTITLE1=Irreplaceable
TTITLE2=Green Light
TTITLE3=Kitty Kat
TTITLE4=Welcome To Hollywood
TTITLE5=Upgrade U
TTITLE6=Flaws And All
TTITLE7=Still In Love (Kissing You)
TTITLE8=Freakum Dress
TTITLE9=Suga Mama
TTITLE10=Deja Vu
TTITLE11=Ring The Alarm
TTITLE12=Resentment
TTITLE13=Amor Gitano Ft. Alejandro Fernández
TTITLE14=Listen (Oye) [Spanish Version]
TTITLE15=Irreplaceable (Irreemplazable) [Spanish version]
TTITLE16=Beautiful Liar (Bello Embustero) (Beyonce) [Spanish Version]
TTITLE17=Beautiful Liar [Remix] (Beyonce and Shakira)
TTITLE18=Beautiful Liar [Spanglish Version] featuring Sasha A/K/A Beyonce
TTITLE19=Irreplaceable (Irreemplazable) [Norteña Remix]
EXTD=
EXTT0=
EXTT1=
EXTT2=
EXTT3=
EXTT4=
EXTT5=
EXTT6=
EXTT7=
EXTT8=
EXTT9=
EXTT10=
EXTT11=
EXTT12=
EXTT13=
EXTT14=
EXTT15=
EXTT16=
EXTT17=
EXTT18=
EXTT19=
PLAYORDER=
